<svg xmlns="http://www.w3.org/2000/svg" viewBox="0 0 200 200"><defs><linearGradient id="a" x1="0%" y1="0%" x2="100%" y2="100%"><stop offset="0%" style="stop-color:#ac2626;stop-opacity:1"/><stop offset="100%" style="stop-color:#b91c1c;stop-opacity:1"/></linearGradient><linearGradient id="b" x1="0%" y1="0%" x2="100%" y2="100%"><stop offset="0%" style="stop-color:#06b6d4;stop-opacity:1"/><stop offset="100%" style="stop-color:#0891b2;stop-opacity:1"/></linearGradient><linearGradient id="c" x1="0%" y1="0%" x2="100%" y2="100%"><stop offset="0%" style="stop-color:#10b981;stop-opacity:1"/><stop offset="100%" style="stop-color:#059669;stop-opacity:1"/></linearGradient></defs><circle cx="100" cy="100" r="95" fill="url(#a)" stroke="#ad1b1b  " stroke-width="2"/><g transform="translate(30 50)"><ellipse cx="20" cy="15" rx="18" ry="6" fill="url(#b)"/><path fill="url(#b)" d="M2 15h36v35H2z"/><ellipse cx="20" cy="50" rx="18" ry="6" fill="#0891b2"/><ellipse cx="20" cy="32" rx="18" ry="6" fill="#06b6d4" opacity=".7"/><ellipse cx="65" cy="20" rx="18" ry="6" fill="url(#c)"/><path fill="url(#c)" d="M47 20h36v35H47z"/><ellipse cx="65" cy="55" rx="18" ry="6" fill="#059669"/><ellipse cx="65" cy="37" rx="18" ry="6" fill="#10b981" opacity=".7"/><ellipse cx="110" cy="25" rx="18" ry="6" fill="#f59e0b"/><path fill="#f59e0b" d="M92 25h36v35H92z"/><ellipse cx="110" cy="60" rx="18" ry="6" fill="#da8207" style="fill:#da8207;fill-opacity:1"/><ellipse cx="110" cy="42" rx="18" ry="6" fill="#fbbf24" opacity=".7"/></g><g stroke="#fff" fill="none"><path d="M0 5q20-5 40 0t40 0 40 0q20 5 30 0" stroke-width="3" opacity=".9" transform="matrix(1.00322 0 0 .9999 25 135)"/><path d="M0 15q15-5 30 0t30 0 30 0 30 0 30 0" stroke-width="2" opacity=".7" transform="matrix(1.00322 0 0 .9999 25 135)"/><path d="M0 25q25-5 50 0t50 0 50 0" stroke-width="2" opacity=".5" transform="matrix(1.00322 0 0 .9999 25 135)"/></g><circle cx="50" cy="85" r="5" fill="#fff" opacity=".9"/><circle cx="95" cy="90" r="5" fill="#fff" opacity=".9"/><circle cx="140" cy="95" r="5" fill="#fff" opacity=".9"/><g style="opacity:.7"><path style="baseline-shift:baseline;display:inline;overflow:visible;vector-effect:none;enable-background:accumulate;stop-color:#000;stop-opacity:1" d="M50 90v49.01" transform="matrix(1 0 0 1.00207 0 -.29)"/><path style="baseline-shift:baseline;display:inline;overflow:visible;vector-effect:none;fill:#fff;enable-background:accumulate;stop-color:#000;stop-opacity:1" d="M49 90v46.1l2 .11V90c-.7.12-1.28.13-2 0z" transform="matrix(1 0 0 1.00207 0 -.29)"/></g><g style="opacity:.7"><path style="baseline-shift:baseline;display:inline;overflow:visible;vector-effect:none;enable-background:accumulate;stop-color:#000;stop-opacity:1" d="M95 95v53.55" transform="matrix(1 0 0 1.00203 0 -.3)"/><path style="baseline-shift:baseline;display:inline;overflow:visible;vector-effect:none;fill:#fff;enable-background:accumulate;stop-color:#000;stop-opacity:1" d="M94 95v51.93a40 40 0 0 1 2-.23V95a5.8 5.8 0 0 1-2 0z" transform="matrix(1 0 0 1.00203 0 -.3)"/></g><g style="opacity:.7"><path style="baseline-shift:baseline;display:inline;overflow:visible;vector-effect:none;enable-background:accumulate;stop-color:#000;stop-opacity:1" d="M140 100v58.86" transform="matrix(1 0 0 1.00222 0 -.35)"/><path style="baseline-shift:baseline;display:inline;overflow:visible;vector-effect:none;fill:#fff;enable-background:accumulate;stop-color:#000;stop-opacity:1" d="m139 100-.03 57.02 2.02-.17L141 100c-.67.12-1.32.12-2 0z" transform="matrix(1 0 0 1.00222 0 -.35)"/></g><circle cx="100" cy="100" r="80" fill="none" stroke="#fff" opacity=".3" style="stroke-width:1.37952756;stroke-dasharray:none"/><ellipse cx="100" cy="100" fill="none" stroke="#991b1b" stroke-width="2" style="stroke-width:17.5018;stroke-dasharray:none" rx="91.03" ry="91.16"/></svg>
